<?xml version="1.0" standalone="no"?>
<!DOCTYPE svg PUBLIC "-//W3C//DTD SVG 20010904//EN"
 "http://www.w3.org/TR/2001/REC-SVG-20010904/DTD/svg10.dtd">
<svg version="1.0" xmlns="http://www.w3.org/2000/svg"
 width="700.000000pt" height="700.000000pt" viewBox="0 0 700.000000 700.000000"
 preserveAspectRatio="xMidYMid meet">
<metadata>
Created by potrace 1.11, written by Peter Selinger 2001-2013
</metadata>
<g transform="translate(0.000000,700.000000) scale(0.100000,-0.100000)"
fill="#000000" stroke="none">
<path d="M3368 6985 c-63 -16 -125 -45 -221 -104 -34 -21 -82 -49 -107 -63
-25 -14 -121 -70 -215 -125 -93 -55 -327 -192 -520 -305 -192 -113 -483 -283
-645 -379 -162 -95 -304 -178 -315 -183 -11 -6 -63 -37 -115 -68 -52 -31 -192
-112 -310 -181 -118 -69 -239 -144 -268 -167 -97 -76 -179 -214 -201 -336 -17
-93 -14 -3093 3 -3165 38 -165 149 -303 321 -400 55 -32 217 -126 360 -209
143 -84 350 -206 460 -270 110 -65 371 -218 580 -340 209 -123 396 -232 415
-243 19 -11 79 -46 133 -78 53 -32 116 -69 138 -81 23 -13 49 -27 58 -33 383
-231 409 -243 556 -251 139 -8 214 16 399 125 83 49 167 98 186 109 19 11 175
102 345 202 323 190 353 208 409 239 19 11 53 31 75 45 22 15 43 26 46 26 3 0
22 11 43 24 20 13 102 62 182 108 80 47 234 138 343 202 109 64 202 116 207
116 6 0 10 5 10 10 0 6 4 10 9 10 5 0 45 21 88 46 43 26 170 101 283 167 113
66 227 136 253 156 90 67 177 210 202 330 8 41 11 463 10 1606 -1 1461 -2
1553 -19 1600 -34 95 -90 187 -147 244 -46 46 -214 156 -344 226 -11 6 -60 35
-110 65 -49 29 -104 61 -120 70 -35 20 -566 330 -735 430 -63 37 -131 77 -150
87 -19 11 -84 49 -145 85 -176 104 -913 537 -990 581 -38 22 -95 49 -125 60
-73 25 -234 32 -312 12z"/>
</g>
</svg>
